<svg xmlns="http://www.w3.org/2000/svg" viewBox="0 0 1746 1240" role="img" aria-labelledby="title desc">
  <title id="title">淮南传媒集团 HMG</title>
  <desc id="desc">HMG logo displayed in the original stacked layout: HMG mark, Chinese name, and English name on a blue background.</desc>
  <rect width="1746" height="1240" fill="#214b99"/>
  <g fill="#fff">
    <text
      x="873"
      y="683"
      text-anchor="middle"
      font-family="Arial Black, Impact, Arial, sans-serif"
      font-size="520"
      font-weight="900"
      textLength="1215"
      lengthAdjust="spacingAndGlyphs">HMG</text>
    <path d="M260 525c60 34 136 42 219 2 47-23 90-51 134-70 72-30 151-35 234 14 41 24 75 58 103 101-57-57-123-84-194-77-67 7-119 43-180 80-84 51-188 74-316 10Z"/>
    <path d="M1165 391c-95 8-174 69-204 160-45 135 43 271 185 297 101 19 194-16 257-81V648h-166v-71h241v219c-91 86-215 121-343 89-184-46-292-229-232-407 47-140 172-223 323-226 102-2 198 33 276 102l-63 74c-69-63-143-91-274-37Z"/>
    <text
      x="873"
      y="864"
      text-anchor="middle"
      font-family="'Microsoft YaHei', 'Noto Sans CJK SC', SimHei, Arial, sans-serif"
      font-size="130"
      font-weight="600"
      textLength="1188"
      lengthAdjust="spacingAndGlyphs">淮南传媒集团</text>
    <text
      x="873"
      y="940"
      text-anchor="middle"
      font-family="Arial, sans-serif"
      font-size="56"
      font-weight="800"
      textLength="1155"
      lengthAdjust="spacingAndGlyphs">HUAINAN MEDIA GROUP</text>
  </g>
</svg>
